#!OML:ASF X:\für Bonn\!DataBase\2005_08_11_Bastian_Final\c3d\Bastian.ASF
:FULLY-SPECIFIED
:DEGREES
97
root -20.8601 15.681 19.5618 364.745 -250.856 19.3383
lowerback 24.1112 1.80096 -2.86959
upperback 8.53989 2.45843 -4.66255
thorax -3.87402 1.68285 -4.10574
lowerneck 2.35291 2.85507 -0.302333
upperneck 7.69058 4.06179 -1.05927
head 2.01772 2.06475 -0.234489
rclavicle -2.06736e-014 -6.67916e-014
rhumerus 49.3065 -21.1802 -21.2722
rradius 55.178
rwrist 4.76211
rhand -29.3998 2.46845
rfingers 7.12502
rthumb -2.73784 -27.4937
lclavicle -2.06736e-014 -6.67916e-014
lhumerus 21.243 14.0282 27.3674
lradius 58.8483
lwrist 45.538
lhand -28.5492 -24.9269
lfingers 7.12502
lthumb -1.91634 5.04422
rfemur 38.2043 3.20495 25.8525
rtibia 17.1858
rfoot -17.5014 -0.668324
rtoes 24.7158
lfemur -46.1945 17.3241 -13.3529
ltibia 44.654
lfoot -19.1213 -1.41636
ltoes -31.7438
98
root -20.7124 15.6207 19.4689 365.762 -251.059 20.2029
lowerback 24.5294 2.02515 -3.23142
upperback 8.58417 2.66482 -4.83279
thorax -4.02189 1.79468 -4.16601
lowerneck 2.46767 2.91328 -0.456083
upperneck 7.31547 4.11682 -0.986363
head 1.87096 2.0881 -0.191359
rclavicle -8.5875e-014 8.26944e-014
rhumerus 50.5534 -21.7301 -21.1884
rradius 54.3601
rwrist 4.97377
rhand -29.0411 2.08627
rfingers 7.12502
rthumb -2.39141 -27.8801
lclavicle -8.5875e-014 8.26944e-014
lhumerus 21.2249 14.1647 26.9336
lradius 58.4448
lwrist 45.7888
lhand -28.721 -24.577
lfingers 7.12502
lthumb -2.08229 5.39257
rfemur 38.3035 3.22189 25.6851
rtibia 17.817
rfoot -17.4351 -0.113502
rtoes 23.7152
lfemur -46.5123 17.4921 -13.1505
ltibia 45.1405
lfoot -19.2138 -1.71265
ltoes -31.4177
99
root -20.5626 15.5621 19.3749 366.886 -251.212 21.1565
lowerback 24.9159 2.22984 -3.54858
upperback 8.64951 2.85824 -5.02693
thorax -4.12788 1.90282 -4.27468
lowerneck 2.5275 2.96992 -0.649177
upperneck 6.9133 4.1649 -0.863054
head 1.72381 2.10737 -0.126093
rclavicle 6.20208e-014 -1.90833e-014
rhumerus 51.7028 -22.2693 -21.0396
rradius 53.5291
rwrist 5.10794
rhand -28.8351 1.72801
rfingers 7.12502
rthumb -2.19249 -28.2405
lclavicle 6.20208e-014 -1.90833e-014
lhumerus 21.2191 14.3631 26.5964
lradius 58.0471
lwrist 45.9829
lhand -28.8055 -24.36
lfingers 7.12502
lthumb -2.16389 5.60875
rfemur 38.3307 3.2185 25.5246
rtibia 18.5182
rfoot -17.3339 0.551709
rtoes 22.7835
lfemur -46.8386 17.6258 -12.935
ltibia 45.6761
lfoot -19.3888 -1.96205
ltoes -31.0742
100
root -20.4095 15.505 19.2803 368.008 -251.347 22.0758
lowerback 25.256 2.42787 -3.88845
upperback 8.7162 3.03764 -5.24942
thorax -4.20846 2.00485 -4.39739
lowerneck 2.58223 3.03125 -0.849357
upperneck 6.50732 4.21888 -0.723516
head 1.57674 2.12996 -0.0552631
rclavicle -1.43125e-014 0
rhumerus 52.7713 -22.7666 -20.8607
rradius 52.7287
rwrist 5.13252
rhand -28.6117 1.43619
rfingers 7.12502
rthumb -1.97667 -28.5344
lclavicle -1.43125e-014 0
lhumerus 21.2159 14.5726 26.3238
lradius 57.6151
lwrist 46.0851
lhand -28.896 -24.32
lfingers 7.12502
lthumb -2.25126 5.64782
rfemur 38.2725 3.20828 25.3076
rtibia 19.2761
rfoot -17.1693 1.36388
rtoes 21.8229
lfemur -47.1853 17.8288 -12.799
ltibia 46.2575
lfoot -19.6672 -2.17703
ltoes -30.8288
101
root -20.2529 15.4485 19.1845 369.226 -251.41 23.0709
lowerback 25.565 2.60923 -4.18593
upperback 8.79214 3.20734 -5.48342
thorax -4.26054 2.10373 -4.55408
lowerneck 2.56127 3.07307 -0.995556
upperneck 6.12247 4.25006 -0.60713
head 1.45191 2.14164 0.000487149
rclavicle 5.56597e-015 1.27222e-014
rhumerus 53.8023 -23.2689 -20.6964
rradius 51.8398
rwrist 5.13975
rhand -28.4721 1.32096
rfingers 7.12502
rthumb -1.84184 -28.6508
lclavicle 5.56597e-015 1.27222e-014
lhumerus 21.2553 14.7397 26.0935
lradius 57.1084
lwrist 46.2097
lhand -29.0271 -24.5313
lfingers 7.12502
lthumb -2.37791 5.43524
rfemur 38.1485 3.18407 25.126
rtibia 20.075
rfoot -16.9635 2.22488
rtoes 20.8148
lfemur -47.5603 18.0502 -12.6955
ltibia 46.8984
lfoot -20.0233 -2.34641
ltoes -30.3378
102
root -20.0943 15.3922 19.0883 370.46 -251.431 24.0495
lowerback 25.8381 2.78343 -4.48429
upperback 8.8718 3.36958 -5.74526
thorax -4.28821 2.20047 -4.73848
lowerneck 2.49784 3.09981 -1.05703
upperneck 5.73398 4.26458 -0.525971
head 1.33648 2.14607 0.0319549
rclavicle 7.79236e-014 -7.95139e-014
rhumerus 54.8257 -23.7532 -20.6053
rradius 50.8928
rwrist 5.11896
rhand -28.3255 1.29157
rfingers 7.12502
rthumb -1.7003 -28.6814
lclavicle 7.79236e-014 -7.95139e-014
lhumerus 21.3389 14.8333 25.8637
lradius 56.5449
lwrist 46.3718
lhand -29.1866 -24.9567
lfingers 7.12502
lthumb -2.53188 5.00801
rfemur 37.9763 3.11097 24.8926
rtibia 20.9033
rfoot -16.7538 3.18676
rtoes 19.467
lfemur -47.9913 18.3159 -12.6697
ltibia 47.5969
lfoot -20.3994 -2.39883
ltoes -29.6702
103
root -19.9313 15.3352 18.9914 371.621 -251.408 24.9501
lowerback 26.1067 2.95734 -4.82211
upperback 8.95203 3.52214 -6.01084
thorax -4.31349 2.29281 -4.90366
lowerneck 2.39998 3.12296 -1.15818
upperneck 5.36762 4.27412 -0.400307
head 1.23257 2.14787 0.0841386
rclavicle -9.06458e-014 5.40694e-014
rhumerus 55.8674 -24.2054 -20.5781
rradius 49.8738
rwrist 5.05305
rhand -28.255 1.42192
rfingers 7.12502
rthumb -1.63217 -28.5516
lclavicle -9.06458e-014 5.40694e-014
lhumerus 21.4572 14.9205 25.7204
lradius 55.9141
lwrist 46.5138
lhand -29.2775 -25.3952
lfingers 7.12502
lthumb -2.61971 4.56848
rfemur 37.8116 3.02835 24.6458
rtibia 21.7296
rfoot -16.5184 4.20209
rtoes 18.0927
lfemur -48.4246 18.5933 -12.7034
ltibia 48.3498
lfoot -20.7245 -2.33449
ltoes -28.2273
104
root -19.7652 15.2789 18.8934 372.879 -251.309 25.9031
lowerback 26.3029 3.11509 -5.13806
upperback 9.0471 3.66669 -6.26889
thorax -4.2861 2.38168 -5.06566
lowerneck 2.29057 3.14413 -1.22021
upperneck 4.98988 4.28429 -0.318675
head 1.12939 2.15026 0.116426
rclavicle 6.67916e-014 -1.27222e-013
rhumerus 56.9341 -24.6461 -20.585
rradius 48.8121
rwrist 4.90205
rhand -28.1497 1.59983
rfingers 7.12502
rthumb -1.53051 -28.3744
lclavicle 6.67916e-014 -1.27222e-013
lhumerus 21.594 14.9794 25.6159
lradius 55.2373
lwrist 46.6875
lhand -29.2901 -25.8291
lfingers 7.12502
lthumb -2.63192 4.13436
rfemur 37.608 2.92265 24.4453
rtibia 22.5375
rfoot -16.238 5.22128
rtoes 16.5369
lfemur -48.9205 18.8627 -12.767
ltibia 49.1492
lfoot -21.0196 -2.04375
ltoes -26.398
105
root -19.5963 15.2243 18.7943 374.077 -251.142 26.7583
lowerback 26.4942 3.26358 -5.47992
upperback 9.12338 3.7897 -6.53696
thorax -4.2777 2.45944 -5.22019
lowerneck 2.19702 3.16743 -1.17924
upperneck 4.61162 4.3029 -0.324776
head 1.028 2.15797 0.105002
rclavicle 7.79236e-014 2.22639e-014
rhumerus 58.0843 -25.0421 -20.7077
rradius 47.6619
rwrist 4.78911
rhand -28.0432 1.80901
rfingers 7.12502
rthumb -1.42761 -28.166
lclavicle 7.79236e-014 2.22639e-014
lhumerus 21.7932 14.96 25.5155
lradius 54.5067
lwrist 46.8674
lhand -29.2893 -26.2048
lfingers 7.12502
lthumb -2.63111 3.75874
rfemur 37.3682 2.76832 24.2202
rtibia 23.3326
rfoot -15.9086 6.30102
rtoes 14.7328
lfemur -49.4517 19.1305 -12.9017
ltibia 49.9724
lfoot -21.2938 -1.52577
ltoes -24.7776
106
root -19.4234 15.1702 18.6948 375.331 -250.891 27.6394
lowerback 26.6427 3.40341 -5.79704
upperback 9.20858 3.91398 -6.80747
thorax -4.23626 2.53893 -5.38913
lowerneck 2.09697 3.1894 -1.10208
upperneck 4.21629 4.31963 -0.304466
head 0.923053 2.16559 0.095679
rclavicle 3.65764e-014 -9.22361e-014
rhumerus 59.1531 -25.4293 -20.7885
rradius 46.5564
rwrist 4.53006
rhand -27.8882 1.89052
rfingers 7.12502
rthumb -1.27798 -28.0854
lclavicle 3.65764e-014 -9.22361e-014
lhumerus 22.0754 14.8901 25.4305
lradius 53.7835
lwrist 47.1029
lhand -29.2495 -26.2419
lfingers 7.12502
lthumb -2.5927 3.7221
rfemur 37.1004 2.57602 24.0525
rtibia 24.1315
rfoot -15.5647 7.36683
rtoes 12.5612
lfemur -50.0202 19.3969 -13.0679
ltibia 50.8047
lfoot -21.494 -0.823539
ltoes -24.1684
